<?xml version="1.0" encoding="utf-8"?>
<!-- Generator: Adobe Illustrator 22.0.1, SVG Export Plug-In . SVG Version: 6.00 Build 0)  -->
<svg version="1.1" id="Layer_1" xmlns="http://www.w3.org/2000/svg" xmlns:xlink="http://www.w3.org/1999/xlink" x="0px" y="0px"
	 viewBox="0 0 800 800" style="enable-background:new 0 0 800 800;" xml:space="preserve">
<style type="text/css">
	.st0{fill:#F69E1D;stroke:#000000;stroke-width:9;stroke-miterlimit:10;}
	.st1{fill:#5495D0;stroke:#000000;stroke-width:9;stroke-miterlimit:10;}
</style>
<g>
	<path class="st0" d="M106.6,566.3c-20.2-8.3-36.4-20.5-48.5-36.8C46,513.3,39.7,493.7,39,470.9h90.5c1.3,12.9,5.8,22.8,13.4,29.6
		c7.6,6.8,17.6,10.2,29.8,10.2c12.6,0,22.5-2.9,29.8-8.7c7.3-5.8,10.9-13.8,10.9-24.1c0-8.6-2.9-15.7-8.7-21.4
		c-5.8-5.6-12.9-10.3-21.4-13.9c-8.5-3.6-20.5-7.8-36-12.4c-22.5-7-40.9-13.9-55.2-20.9c-14.3-7-26.5-17.2-36.8-30.8
		C45.1,364.8,40,347,40,325.2c0-32.5,11.8-57.9,35.3-76.3c23.5-18.4,54.2-27.6,92-27.6c38.4,0,69.4,9.2,93,27.6
		c23.5,18.4,36.1,44,37.8,76.8h-92c-0.7-11.3-4.8-20.1-12.4-26.6c-7.6-6.5-17.4-9.7-29.3-9.7c-10.3,0-18.6,2.7-24.9,8.2
		c-6.3,5.5-9.4,13.3-9.4,23.6c0,11.3,5.3,20.1,15.9,26.4c10.6,6.3,27.2,13.1,49.7,20.4c22.5,7.6,40.8,14.9,54.9,21.9
		c14.1,7,26.3,17.1,36.5,30.3c10.3,13.3,15.4,30.3,15.4,51.2c0,19.9-5.1,38-15.2,54.2c-10.1,16.2-24.8,29.2-44,38.8
		c-19.2,9.6-41.9,14.4-68.1,14.4C149.7,578.7,126.8,574.6,106.6,566.3z"/>
	<path class="st1" d="M750,226.2v349h-85V365.9l-78.1,209.3h-68.6l-78.6-209.8v209.8h-85v-349h100.4l98,241.6l97-241.6H750z"/>
</g>
</svg>
